<mxfile host="app.diagrams.net" agent="Mozilla/5.0 (Windows NT 10.0; Win64; x64) AppleWebKit/537.36 (KHTML, like Gecko) Chrome/127.0.0.0 Safari/537.36" version="24.7.7">
  <diagram name="第 1 页" id="E17021aXrXbzaKeWtOqQ">
    <mxGraphModel dx="1221" dy="725" grid="1" gridSize="10" guides="1" tooltips="1" connect="1" arrows="1" fold="1" page="1" pageScale="1" pageWidth="827" pageHeight="1169" math="0" shadow="0">
      <root>
        <mxCell id="0" />
        <mxCell id="1" parent="0" />
        <mxCell id="9C-Q__M36kn6rR6Csj-a-5" style="edgeStyle=orthogonalEdgeStyle;rounded=0;orthogonalLoop=1;jettySize=auto;html=1;exitX=1;exitY=0.5;exitDx=0;exitDy=0;" edge="1" parent="1" source="9C-Q__M36kn6rR6Csj-a-1" target="9C-Q__M36kn6rR6Csj-a-2">
          <mxGeometry relative="1" as="geometry" />
        </mxCell>
        <mxCell id="9C-Q__M36kn6rR6Csj-a-1" value="军事标绘模块" style="rounded=1;whiteSpace=wrap;html=1;" vertex="1" parent="1">
          <mxGeometry x="130" y="290" width="120" height="60" as="geometry" />
        </mxCell>
        <mxCell id="9C-Q__M36kn6rR6Csj-a-7" style="edgeStyle=orthogonalEdgeStyle;rounded=0;orthogonalLoop=1;jettySize=auto;html=1;exitX=1;exitY=0.5;exitDx=0;exitDy=0;" edge="1" parent="1" source="9C-Q__M36kn6rR6Csj-a-2" target="9C-Q__M36kn6rR6Csj-a-6">
          <mxGeometry relative="1" as="geometry" />
        </mxCell>
        <mxCell id="9C-Q__M36kn6rR6Csj-a-2" value="军标库管理" style="rounded=1;whiteSpace=wrap;html=1;" vertex="1" parent="1">
          <mxGeometry x="294" y="290" width="120" height="60" as="geometry" />
        </mxCell>
        <mxCell id="9C-Q__M36kn6rR6Csj-a-4" style="edgeStyle=orthogonalEdgeStyle;rounded=0;orthogonalLoop=1;jettySize=auto;html=1;exitX=0.5;exitY=1;exitDx=0;exitDy=0;entryX=0.5;entryY=0;entryDx=0;entryDy=0;" edge="1" parent="1" source="9C-Q__M36kn6rR6Csj-a-3" target="9C-Q__M36kn6rR6Csj-a-2">
          <mxGeometry relative="1" as="geometry" />
        </mxCell>
        <mxCell id="9C-Q__M36kn6rR6Csj-a-12" style="edgeStyle=orthogonalEdgeStyle;rounded=0;orthogonalLoop=1;jettySize=auto;html=1;exitX=0;exitY=0.5;exitDx=0;exitDy=0;" edge="1" parent="1" source="9C-Q__M36kn6rR6Csj-a-3" target="9C-Q__M36kn6rR6Csj-a-11">
          <mxGeometry relative="1" as="geometry" />
        </mxCell>
        <mxCell id="9C-Q__M36kn6rR6Csj-a-3" value="2013版军事符号标准" style="rounded=1;whiteSpace=wrap;html=1;" vertex="1" parent="1">
          <mxGeometry x="294" y="200" width="120" height="60" as="geometry" />
        </mxCell>
        <mxCell id="9C-Q__M36kn6rR6Csj-a-9" style="edgeStyle=orthogonalEdgeStyle;rounded=0;orthogonalLoop=1;jettySize=auto;html=1;exitX=1;exitY=0.5;exitDx=0;exitDy=0;" edge="1" parent="1" source="9C-Q__M36kn6rR6Csj-a-6" target="9C-Q__M36kn6rR6Csj-a-8">
          <mxGeometry relative="1" as="geometry" />
        </mxCell>
        <mxCell id="9C-Q__M36kn6rR6Csj-a-6" value="军标符号选择" style="rounded=1;whiteSpace=wrap;html=1;" vertex="1" parent="1">
          <mxGeometry x="460" y="290" width="120" height="60" as="geometry" />
        </mxCell>
        <mxCell id="9C-Q__M36kn6rR6Csj-a-10" style="edgeStyle=orthogonalEdgeStyle;rounded=0;orthogonalLoop=1;jettySize=auto;html=1;exitX=1;exitY=0.5;exitDx=0;exitDy=0;entryX=1;entryY=0.5;entryDx=0;entryDy=0;" edge="1" parent="1" source="9C-Q__M36kn6rR6Csj-a-8" target="9C-Q__M36kn6rR6Csj-a-3">
          <mxGeometry relative="1" as="geometry" />
        </mxCell>
        <mxCell id="9C-Q__M36kn6rR6Csj-a-8" value="军标符号绘制" style="rounded=1;whiteSpace=wrap;html=1;" vertex="1" parent="1">
          <mxGeometry x="620" y="290" width="120" height="60" as="geometry" />
        </mxCell>
        <mxCell id="9C-Q__M36kn6rR6Csj-a-11" value="军标信息保存输出" style="rounded=1;whiteSpace=wrap;html=1;" vertex="1" parent="1">
          <mxGeometry x="130" y="200" width="120" height="60" as="geometry" />
        </mxCell>
        <mxCell id="9C-Q__M36kn6rR6Csj-a-13" value="&lt;b&gt;知识库&lt;/b&gt;" style="text;html=1;align=center;verticalAlign=middle;whiteSpace=wrap;rounded=0;" vertex="1" parent="1">
          <mxGeometry x="324" y="260" width="60" height="30" as="geometry" />
        </mxCell>
        <mxCell id="9C-Q__M36kn6rR6Csj-a-14" value="&lt;b&gt;检查是否符合标准&lt;/b&gt;" style="text;html=1;align=center;verticalAlign=middle;whiteSpace=wrap;rounded=0;" vertex="1" parent="1">
          <mxGeometry x="530" y="200" width="140" height="30" as="geometry" />
        </mxCell>
      </root>
    </mxGraphModel>
  </diagram>
</mxfile>
